# xmcd
# 
# Track frame offsets:
#     150
#     13228
#     23631
#     37962
#     55232
#     67410
#     78044
#     87644
#     101926
#     116115
#     127530
#     142414
#     155436
# 
# Disc length: 2237
# 
# Revision: 0
# Processed by: cddbd v1.5.2PL0 Copyright (c) Steve Scherf et al.
# Submitted via: BonkEnc v1.0
# 
DISCID=b308bb0d
DTITLE=Various Artist - COUNTRY HITS VOL 2
DYEAR=2005
DGENRE=Country
TTITLE0=Sir Doglas Quintet - Meet me in Stockholm
TTITLE1=Connie Francic - Lipstick on your collar
TTITLE2=Don Williams - Amanda
TTITLE3=C. W. McCALL - Convoy
TTITLE4=Brenda Lee - I'am sorry
TTITLE5=Leroy van Dyke - Walk on by
TTITLE6=Dave Dudley - Don't fence me in
TTITLE7=Rank Strangers - Early morning rain
TTITLE8=Lee Greenwood - I. O. Y.
TTITLE9=Leapy Lee - Little Arrows
TTITLE10=Jeanne Pruett - Satin Sheets
TTITLE11=Waylon Jennings - If old Hank could see us now
TTITLE12=Tom Jones - Ring of fire
EXTD=
EXTT0=
EXTT1=
EXTT2=
EXTT3=
EXTT4=
EXTT5=
EXTT6=
EXTT7=
EXTT8=
EXTT9=
EXTT10=
EXTT11=
EXTT12=
PLAYORDER=
